<?xml version="1.0" encoding="UTF-8" standalone="no"?>
<!-- Created with Inkscape (http://www.inkscape.org/) -->

<svg
   xmlns:dc="http://purl.org/dc/elements/1.1/"
   xmlns:cc="http://creativecommons.org/ns#"
   xmlns:rdf="http://www.w3.org/1999/02/22-rdf-syntax-ns#"
   xmlns:svg="http://www.w3.org/2000/svg"
   xmlns="http://www.w3.org/2000/svg"
   xmlns:sodipodi="http://sodipodi.sourceforge.net/DTD/sodipodi-0.dtd"
   xmlns:inkscape="http://www.inkscape.org/namespaces/inkscape"
   width="392.25232mm"
   height="64.295647mm"
   viewBox="0 0 392.25232 64.295647"
   version="1.1"
   id="svg8"
   inkscape:version="0.92.4 (5da689c313, 2019-01-14)"
   sodipodi:docname="HeadbandOutline.svg">
  <defs
     id="defs2" />
  <sodipodi:namedview
     id="base"
     pagecolor="#ffffff"
     bordercolor="#666666"
     borderopacity="1.0"
     inkscape:pageopacity="0.0"
     inkscape:pageshadow="2"
     inkscape:zoom="0.34117573"
     inkscape:cx="387.81667"
     inkscape:cy="-173.99706"
     inkscape:document-units="mm"
     inkscape:current-layer="layer1"
     showgrid="false"
     inkscape:window-width="1600"
     inkscape:window-height="1214"
     inkscape:window-x="3191"
     inkscape:window-y="-9"
     inkscape:window-maximized="1"
     inkscape:snap-bbox="true"
     inkscape:snap-bbox-midpoints="true"
     showguides="true"
     inkscape:guide-bbox="true"
     inkscape:snap-midpoints="true"
     inkscape:snap-nodes="true"
     inkscape:object-nodes="false"
     fit-margin-top="0"
     fit-margin-left="0"
     fit-margin-right="0"
     fit-margin-bottom="0" />
  <metadata
     id="metadata5">
    <rdf:RDF>
      <cc:Work
         rdf:about="">
        <dc:format>image/svg+xml</dc:format>
        <dc:type
           rdf:resource="http://purl.org/dc/dcmitype/StillImage" />
        <dc:title></dc:title>
      </cc:Work>
    </rdf:RDF>
  </metadata>
  <g
     inkscape:label="Layer 1"
     inkscape:groupmode="layer"
     id="layer1"
     transform="translate(172.17601,4.950686)">
    <g
       id="g1528" />
    <g
       transform="translate(-80.635866,-82.062074)"
       id="g1538">
      <path
         inkscape:connector-curvature="0"
         style="opacity:1;vector-effect:none;fill:none;fill-opacity:1;fill-rule:evenodd;stroke:#ff0000;stroke-width:0.19999999;stroke-linecap:square;stroke-linejoin:miter;stroke-miterlimit:4;stroke-dasharray:none;stroke-dashoffset:0;stroke-opacity:1"
         d="M -86.246274,77.211388 H 295.61219 c 2.77,0 5,2.6796 5,6.00806 v 17.783872 c 0,3.32847 -2.23,6.00807 -5,6.00807 H -53.506671 c -1.153119,0.0242 -0.988877,-2.00103 -1.87241,-2.67807 -1.76494,-1.31371 -9.548916,-1.36215 -11.070206,0 -0.962617,1.23744 -1.38943,2.23906 -2.20344,2.67807 h -17.593537 c -2.77001,0 -5,-2.6796 -5,-6.00807 V 83.219448 c 0,-3.32846 2.22999,-6.00806 4.99999,-6.00806 z"
         id="path1534"
         sodipodi:nodetypes="sssssccccssss" />
      <path
         inkscape:connector-curvature="0"
         id="path1536"
         style="opacity:1;vector-effect:none;fill:none;fill-opacity:1;fill-rule:evenodd;stroke:#000000;stroke-width:0.20000002;stroke-linecap:square;stroke-linejoin:miter;stroke-miterlimit:4;stroke-dasharray:none;stroke-dashoffset:0;stroke-opacity:1"
         d="m -83.014153,79.41619 h 1.20362 c 0.110803,-5e-6 0.200003,0.0892 0.200003,0.199995 l -4e-6,1.203617 c 0,0.110801 -0.0892,0.199996 -0.2,0.200001 h -1.20362 c -0.110798,-3e-6 -0.199998,-0.0892 -0.199998,-0.200004 l -10e-7,-1.203608 c 0,-0.110801 0.0892,-0.200005 0.2,-0.200001 z m 10e-7,3.64349 h 1.20362 c 0.110798,3e-6 0.200002,0.0892 0.200002,0.199995 l -2e-6,1.203622 c 0,0.110801 -0.0892,0.200005 -0.2,0.200001 h -1.203619 c -0.110803,5e-6 -0.200003,-0.08919 -0.200003,-0.199995 l 10e-7,-1.203623 c 0,-0.1108 0.0892,-0.200005 0.200001,-0.2 z m -2e-6,20.14349 h 1.20362 c 0.110802,0 0.200002,0.0892 0.200002,0.2 l -10e-7,1.20362 c 0,0.1108 -0.0892,0.2 -0.2,0.2 h -1.20362 c -0.110798,0 -0.199998,-0.0892 -0.199998,-0.2 l -3e-6,-1.20362 c 0,-0.1108 0.0892,-0.2 0.2,-0.2 z m 0,-3.643489 h 1.20362 c 0.110802,-5e-6 0.200002,0.0892 0.200002,0.199995 l -10e-7,1.203624 c 0,0.1108 -0.0892,0.2 -0.2,0.2 h -1.20362 c -0.110799,0 -0.199998,-0.0892 -0.199998,-0.2 l -3e-6,-1.203619 c 0,-0.1108 0.0892,-0.200004 0.2,-0.2 z m 37.024429,4.145489 c 0,0.35898 -0.291019,0.65 -0.650003,0.65 -0.359001,0 -0.650003,-0.29102 -0.650003,-0.65 1e-6,-0.35898 0.291002,-0.65 0.650003,-0.65 0.358984,0 0.650004,0.29101 0.650003,0.65 z M 275.80331,92.120484 c 0,0.508429 -0.41218,0.920592 -0.9206,0.920601 -0.50843,9e-6 -0.9206,-0.412163 -0.9206,-0.920592 0,-0.508428 0.41217,-0.920592 0.9206,-0.920609 0.50843,0 0.9206,0.412172 0.9206,0.9206 z M 219.87368,88.11139 h 5.00001 c 0.831,-9e-6 1.49999,0.668999 1.49999,1.500002 v 4.999998 c 0,0.831003 -0.669,1.499976 -1.5,1.499994 l -5,9e-6 c -0.831,-9e-6 -1.50001,-0.669009 -1.50001,-1.500012 v -4.999998 c 0,-0.831002 0.66902,-1.499985 1.50001,-1.499993 z m -16.81301,0 h 5.00002 c 0.83099,-9e-6 1.5,0.668991 1.5,1.499993 v 4.999998 c 0,0.831003 -0.66901,1.499985 -1.5,1.500012 l -5.00001,-9e-6 c -0.83101,0 -1.5,-0.668991 -1.5,-1.499994 v -4.999998 c 0,-0.831003 0.66901,-1.499985 1.49999,-1.500002 z m -16.81301,0 h 5.00001 c 0.83101,0 1.50001,0.668991 1.50001,1.499993 v 4.999998 c 0,0.831003 -0.66902,1.499985 -1.5,1.500003 h -5.00001 c -0.83101,0 -1.5,-0.668991 -1.5,-1.499994 v -4.999998 c 0,-0.831003 0.66901,-1.499985 1.49999,-1.500002 z m -16.81299,-9e-6 h 5.00001 c 0.831,9e-6 1.5,0.669008 1.49999,1.500002 l 10e-6,5.000007 c -10e-6,0.830994 -0.66901,1.499985 -1.5,1.499994 h -5.00001 c -0.831,9e-6 -1.5,-0.669 -1.50001,-1.499994 l 1e-5,-5.000007 c -1e-5,-0.830994 0.66901,-1.499976 1.5,-1.500002 z m -16.813,9e-6 5,-9e-6 c 0.83099,9e-6 1.5,0.669008 1.5,1.500011 v 4.999998 c 0,0.831003 -0.66901,1.499985 -1.5,1.499994 h -5.00001 c -0.83099,0 -1.49999,-0.669 -1.49999,-1.500003 v -4.999998 c 0,-0.831002 0.669,-1.499976 1.5,-1.499993 z m -16.813,0 h 5 c 0.83099,0 1.49999,0.668999 1.49999,1.500002 v 4.999998 c 0,0.831003 -0.669,1.499976 -1.5,1.499994 l -4.99999,6e-6 c -0.831,-4e-6 -1.50001,-0.669007 -1.5,-1.499999 l -1e-5,-5.000008 c 1e-5,-0.830992 0.66902,-1.499985 1.50001,-1.499993 z m -16.813,-4e-6 5,2e-6 c 0.83099,-5e-6 1.5,0.668997 1.5,1.499999 v 4.999999 c 0,0.831001 -0.66901,1.499981 -1.5,1.500004 l -5,-2e-6 c -0.83101,-4e-6 -1.5,-0.668998 -1.5,-1.499999 V 89.61139 c 0,-0.831001 0.66901,-1.499981 1.5,-1.500004 z m -16.813,-4e-6 5,3e-6 c 0.83101,4e-6 1.50001,0.669006 1.5,1.499998 l 1e-5,5.000008 c -1e-5,0.830993 -0.66901,1.499982 -1.5,1.499996 l -5.00001,-3e-6 c -0.83099,6e-6 -1.49999,-0.668997 -1.49999,-1.499998 v -4.999999 c -1e-5,-0.831001 0.66901,-1.499981 1.49999,-1.500005 z m -16.813011,8e-6 4.999996,-6e-6 c 0.831003,3e-6 1.500003,0.669006 1.5,1.499999 l 4e-6,5.000007 c -4e-6,0.830993 -0.669009,1.499981 -1.500003,1.499996 l -5.000001,-3e-6 c -0.830997,6e-6 -1.499998,-0.668997 -1.499999,-1.499998 v -4.999999 c 0,-0.831002 0.66901,-1.499981 1.500003,-1.499996 z m -16.813001,-2e-6 5.000001,2e-6 c 0.830998,-7e-6 1.499999,0.668997 1.5,1.499998 l -10e-7,5 c 10e-7,0.831001 -0.669009,1.499979 -1.500002,1.499994 l -4.999997,8e-6 c -0.831002,-4e-6 -1.500003,-0.669007 -1.5,-1.499999 l -3e-6,-5.000008 c 3e-6,-0.830993 0.669009,-1.499981 1.500002,-1.499995 z m -16.813,-5e-6 5.000001,3e-6 c 0.831002,3e-6 1.499999,0.668996 1.499999,1.499998 v 4.999999 c 10e-7,0.831001 -0.669009,1.49998 -1.499998,1.500004 l -5.000001,-2e-6 c -0.830998,5e-6 -1.499999,-0.668997 -1.499999,-1.499998 v -4.999999 c -10e-7,-0.831002 0.669009,-1.499982 1.499998,-1.500005 z m -16.812994,2e-6 5.000001,2e-6 c 0.831002,3e-6 1.499999,0.668997 1.499999,1.499999 v 4.999999 c 0,0.831001 -0.669009,1.49998 -1.499998,1.500005 l -5.000001,-3e-6 c -0.831002,-4e-6 -1.499999,-0.668997 -1.5,-1.499999 l 1e-6,-4.999998 c -1e-6,-0.831002 0.669009,-1.499982 1.499998,-1.500005 z m -16.812999,3e-6 5,-1e-6 c 0.831001,0 1.5,0.669 1.5,1.5 v 5.000001 c 0,0.830999 -0.669,1.499997 -1.5,1.499999 l -5,1e-6 c -0.831,-1e-6 -1.5,-0.669001 -1.5,-1.500001 v -5 c 0,-0.831 0.669001,-1.499999 1.5,-1.499999 z m -16.8130001,-1e-6 h 4.9999997 c 0.831001,0 1.5000002,0.669001 1.5000002,1.5 v 5 c 0,0.831001 -0.6690001,1.499998 -1.5000002,1.5 H 1.3046649 c -0.83100011,0 -1.49999977,-0.669 -1.50000021,-1.5 v -5 c 0,-0.830999 0.66900054,-1.499999 1.50000021,-1.5 z m -16.8129549,0 h 5 c 0.8309999,0 1.4999995,0.669 1.5,1.5 v 5 c -5e-7,0.831 -0.6690006,1.499999 -1.5,1.5 h -5 c -0.831,0 -1.5,-0.668999 -1.5,-1.5 v -5 c 0,-0.830999 0.669,-1.499999 1.5,-1.5 z m 312.08742,-0.505213 c 10e-6,0.358973 0.29104,0.649972 0.65,0.64999 0.35898,9e-6 0.65,-0.291017 0.65,-0.64999 0,-0.358983 -0.29104,-0.649973 -0.65,-0.650008 -0.35897,0 -0.65,0.291007 -0.65,0.650008 z m 0,9.010972 c 0,0.358982 0.29104,0.649972 0.65001,0.649999 0.35897,0 0.64999,-0.291017 0.64999,-0.649999 0,-0.358983 -0.29104,-0.649972 -0.64999,-0.649999 -0.35899,0 -0.65001,0.291016 -0.65001,0.649999 z m -373.766556,-13.761108 3.14199,10e-7 c 0.277002,-5e-6 0.499999,0.223001 0.499999,0.500001 v 11.16077 c 0,0.277 -0.223002,0.499998 -0.499998,0.499996 l -3.14199,-10e-7 c -0.277002,5e-6 -0.499999,-0.223 -0.499999,-0.500001 V 83.356035 c 0,-0.277001 0.223002,-0.499998 0.499998,-0.499997 z m 4.88072,-2.337893 c -3e-6,0.358995 -0.291011,0.649999 -0.650002,0.650004 -0.358978,-5e-6 -0.650001,-0.29101 -0.649998,-0.650005 10e-7,-0.35898 0.29102,-0.649999 0.649997,-0.649994 0.358992,-3e-6 0.650003,0.291014 0.650003,0.649995 z m 13.158492,6e-6 c 2e-6,0.358986 -0.29102,0.649999 -0.649997,0.649994 -0.358982,4e-6 -0.650001,-0.291009 -0.650003,-0.649995 10e-7,-0.358982 0.29102,-0.649999 0.650002,-0.650004 0.358978,5e-6 0.649999,0.291024 0.649998,0.650005 z m 13.158497,-4e-6 c 0,0.35899 -0.29102,0.649999 -0.650002,0.65 -0.359,0 -0.65,-0.29101 -0.65,-0.65 0,-0.35898 0.291,-0.65 0.65,-0.65 0.358982,0 0.650002,0.29102 0.650002,0.65 z m 26.316999,0 c 0,0.35899 -0.291014,0.650004 -0.65,0.65 -0.358984,0 -0.65,-0.29101 -0.65,-0.65 0,-0.35898 0.291018,-0.649996 0.65,-0.65 0.358985,0 0.65,0.29102 0.65,0.65 z m 26.3169895,0 c 5e-7,0.358991 -0.291019,0.649997 -0.6499999,0.65 -0.3589814,0 -0.65,-0.29101 -0.65,-0.65 5e-7,-0.35898 0.2910191,-0.649997 0.65,-0.65 0.3589822,0 0.6500004,0.29102 0.6499999,0.65 z m 26.3169965,0 c 0,0.35899 -0.291019,0.649997 -0.65,0.65 -0.358982,0 -0.65,-0.29101 -0.65,-0.65 -1e-6,-0.35898 0.291019,-0.649997 0.65,-0.65 0.358982,0 0.65,0.29102 0.65,0.65 z m 26.317,-2e-6 c 3e-6,0.358995 -0.291032,0.649971 -0.649997,0.650005 -0.358983,-3e-6 -0.649999,-0.291009 -0.650002,-0.650004 0,-0.358982 0.291033,-0.649971 0.650002,-0.649996 0.358979,-7e-6 0.649997,0.291014 0.649997,0.649995 z m 26.316986,5e-6 c -2e-6,0.358987 -0.291032,0.649971 -0.650002,0.649995 -0.358983,-2e-6 -0.649999,-0.291007 -0.649997,-0.649994 -10e-7,-0.358981 0.291032,-0.649971 0.649998,-0.650005 0.358982,3e-6 0.650001,0.291023 0.650001,0.650004 z m 26.316986,-5e-6 c 1e-5,0.358995 -0.29103,0.649973 -0.64999,0.650005 -0.35899,-3e-6 -0.65,-0.291009 -0.65,-0.650004 -1e-5,-0.358981 0.29102,-0.649962 0.65,-0.649996 0.35897,-4e-6 0.64999,0.291014 0.64999,0.649995 z m 13.1585,-2e-6 c 1e-5,0.358996 -0.29103,0.649974 -0.64999,0.650005 -0.35899,-4e-6 -0.65,-0.291008 -0.65001,-0.650004 0,-0.35898 0.29104,-0.649972 0.65001,-0.649995 0.35897,-5e-6 0.65,0.291023 0.64999,0.649994 z m -210.535945,3e-6 c -2e-6,0.358995 -0.291028,0.649999 -0.650011,0.650003 -0.358977,-6e-6 -0.65,-0.29101 -0.649997,-0.650005 0,-0.358981 0.29102,-0.649999 0.649997,-0.649994 0.358982,-5e-6 0.650012,0.291014 0.650011,0.649996 z m 236.852945,6e-6 c 0,0.358983 -0.29103,0.649964 -0.65,0.649991 -0.35898,8e-6 -0.65,-0.291008 -0.65001,-0.65 1e-5,-0.358973 0.29104,-0.649972 0.65001,-0.649999 0.35899,9e-6 0.65,0.291026 0.65,0.650008 z m 26.31699,0 c 0,0.358983 -0.29103,0.649973 -0.65,0.649991 -0.35897,8e-6 -0.64999,-0.291008 -0.64999,-0.649991 0,-0.358982 0.29103,-0.649972 0.64999,-0.650008 0.35899,0 0.65,0.291026 0.65,0.650008 z m 13.15852,-9e-6 c 0,0.359001 -0.29104,0.649973 -0.65,0.650008 -0.35898,-8e-6 -0.65001,-0.291016 -0.65,-0.650008 0,-0.358982 0.29103,-0.649972 0.65,-0.64999 0.35898,-9e-6 0.65,0.291008 0.65,0.64999 z m 13.15849,0 c 1e-5,0.358992 -0.29103,0.649973 -0.64999,0.650008 -0.35898,-8e-6 -0.65,-0.291007 -0.65,-0.650008 0,-0.358982 0.29103,-0.649972 0.65,-0.64999 0.35897,-9e-6 0.64999,0.291008 0.64999,0.64999 z m 13.1585,0 c 1e-5,0.358992 -0.29103,0.649973 -0.65,0.650008 -0.35898,-8e-6 -0.64999,-0.291016 -0.65,-0.650008 1e-5,-0.358973 0.29104,-0.649972 0.65001,-0.649999 0.35897,0 0.65,0.291026 0.64999,0.649999 z m 13.15847,0 c 0,0.359001 -0.29104,0.649973 -0.65,0.650008 -0.35898,-8e-6 -0.65001,-0.291016 -0.65,-0.650008 0,-0.358982 0.29103,-0.649972 0.65,-0.64999 0.35898,-9e-6 0.65,0.291008 0.65,0.64999 z m 13.15849,0 c 1e-5,0.358992 -0.29103,0.649973 -0.64999,0.650008 -0.35898,-8e-6 -0.65,-0.291007 -0.65,-0.650008 0,-0.358982 0.29103,-0.649972 0.65,-0.64999 0.35897,-9e-6 0.64999,0.291008 0.64999,0.64999 z m 13.1585,0 c 10e-6,0.358992 -0.29103,0.649973 -0.65,0.650008 -0.35898,-8e-6 -0.64999,-0.291016 -0.65,-0.650008 10e-6,-0.358973 0.29104,-0.649972 0.65001,-0.649999 0.35897,0 0.65,0.291026 0.64999,0.649999 z m 13.15852,9e-6 c 0,0.358983 -0.29104,0.649973 -0.65,0.649991 -0.35898,8e-6 -0.65,-0.291008 -0.65,-0.649991 0,-0.358982 0.29103,-0.649972 0.65,-0.650008 0.35898,9e-6 0.65,0.291026 0.65,0.650008 z m 26.31699,-9e-6 c -1e-5,0.358992 -0.29104,0.649973 -0.65001,0.65 -0.35898,8e-6 -0.65,-0.291008 -0.65,-0.649991 0,-0.358982 0.29104,-0.649981 0.65,-0.650008 0.35899,0 0.65,0.291026 0.65001,0.649999 z m -328.962428,4e-6 c 0,0.35899 -0.291013,0.650004 -0.65,0.65 -0.358985,0 -0.65,-0.291009 -0.65,-0.65 0,-0.35898 0.291013,-0.650003 0.65,-0.65 0.358985,0 0.65,0.29102 0.65,0.65 z m 26.3169901,0 c 4e-7,0.358991 -0.2910182,0.649996 -0.65,0.65 -0.3589849,0 -0.6499999,-0.29101 -0.6499999,-0.65 4e-7,-0.35898 0.2910132,-0.650004 0.6499999,-0.65 0.3589841,0 0.6500004,0.29102 0.65,0.65 z m 26.3169979,0 c 0,0.358991 -0.291019,0.649998 -0.65,0.65 -0.358982,0 -0.65,-0.291009 -0.65,-0.65 0,-0.35898 0.291019,-0.649997 0.65,-0.65 0.358982,0 0.65,0.29102 0.65,0.65 z m 26.316998,10e-7 c -10e-7,0.358986 -0.291032,0.649971 -0.650002,0.649996 -0.358978,7e-6 -0.649999,-0.291009 -0.649997,-0.649995 -10e-7,-0.358981 0.291032,-0.649971 0.649998,-0.650004 0.358983,2e-6 0.650001,0.291022 0.650001,0.650003 z m 26.316987,3e-6 c -2e-6,0.358987 -0.291032,0.649971 -0.650002,0.649996 -0.358983,-2e-6 -0.649999,-0.291009 -0.650002,-0.650004 4e-6,-0.358971 0.291032,-0.64997 0.650002,-0.649995 0.358983,2e-6 0.650002,0.291022 0.650002,0.650003 z m 26.31699,-4e-6 c -10e-7,0.358986 -0.291033,0.649972 -0.649997,0.650004 -0.358982,-4e-6 -0.650004,-0.291017 -0.650002,-0.650003 0,-0.358982 0.291034,-0.649973 0.649998,-0.650005 0.358982,4e-6 0.650001,0.291022 0.650001,0.650004 z m 39.475485,-4e-6 c 1e-5,0.358992 -0.29103,0.649973 -0.65,0.650008 -0.35898,-8e-6 -0.65,-0.291007 -0.65,-0.650008 0,-0.358982 0.29104,-0.649972 0.65,-0.64999 0.35898,-9e-6 0.65001,0.291017 0.65,0.64999 z m 26.31701,9e-6 c 0,0.358983 -0.29104,0.649973 -0.65,0.649991 -0.35898,8e-6 -0.65,-0.291008 -0.65,-0.649991 0,-0.358982 0.29103,-0.649972 0.65,-0.650008 0.35898,9e-6 0.65,0.291026 0.65,0.650008 z m 118.42646,0 c 0,0.358983 -0.29103,0.649973 -0.64999,0.649991 -0.35898,8e-6 -0.65,-0.291008 -0.65,-0.649991 0,-0.358982 0.29103,-0.649972 0.65,-0.650008 0.35897,9e-6 0.64999,0.291026 0.64999,0.650008 z M -19.672738,103.70517 c -1e-6,0.35898 -0.291013,0.65 -0.65,0.65 -0.358984,0 -0.65,-0.29102 -0.65,-0.65 0,-0.35898 0.291018,-0.65 0.65,-0.65 0.358985,0 0.65,0.29102 0.65,0.65 z m 26.3169859,0 c 0,0.35898 -0.2910195,0.65 -0.65,0.65 -0.3589822,0 -0.6499999,-0.29102 -0.6500004,-0.65 5e-7,-0.35898 0.2910195,-0.65 0.65,-0.65 0.3589822,0 0.6500004,0.29102 0.6500004,0.65 z m 26.3169941,0 c 1e-6,0.35898 -0.291032,0.64997 -0.649997,0.65 -0.358983,0 -0.650001,-0.29102 -0.650002,-0.65 -10e-7,-0.35899 0.291033,-0.64997 0.650002,-0.65 0.358979,-1e-5 0.649997,0.29101 0.649997,0.65 z m 26.316988,0 c 0,0.35898 -0.291033,0.64997 -0.649998,0.65 -0.358983,0 -0.650001,-0.29102 -0.650002,-0.65 -1e-6,-0.35898 0.291033,-0.64997 0.649998,-0.65001 0.358983,1e-5 0.650001,0.29103 0.650002,0.65001 z m 26.316998,0 c 0,0.35898 -0.291033,0.64997 -0.649998,0.65 -0.358983,0 -0.650001,-0.29102 -0.650002,-0.65 -10e-7,-0.35898 0.291033,-0.64997 0.650002,-0.65 0.358979,-1e-5 0.649997,0.29101 0.649998,0.65 z m 26.316982,0 c 0,0.35898 -0.29104,0.64997 -0.65001,0.64999 -0.35897,1e-5 -0.64999,-0.29101 -0.64999,-0.64999 0,-0.35898 0.29103,-0.64997 0.64999,-0.65001 0.35899,1e-5 0.65001,0.29103 0.65001,0.65001 z m 13.1585,0 c 0,0.35898 -0.29104,0.64997 -0.65,0.65 -0.35898,0 -0.65,-0.29102 -0.65,-0.65 -10e-6,-0.35898 0.29103,-0.64997 0.65,-0.65 0.35898,0 0.64999,0.29101 0.65,0.65 z m -210.535913,-10e-6 c -10e-7,0.35899 -0.291042,0.65001 -0.650021,0.65001 -0.358973,0 -0.650003,-0.29102 -0.650002,-0.65 10e-7,-0.35898 0.291028,-0.65 0.650001,-0.65 0.358978,0 0.650018,0.29102 0.650022,0.64999 z m 236.852883,10e-6 c 0,0.35898 -0.29103,0.64996 -0.64999,0.65 -0.35899,0 -0.65001,-0.29102 -0.65001,-0.65 0,-0.35898 0.29104,-0.64997 0.65001,-0.65 0.35898,0 0.64999,0.29102 0.64999,0.65 z m 26.31702,0 c 0,0.35898 -0.29103,0.64997 -0.65001,0.65 -0.35897,0 -0.65,-0.29103 -0.64999,-0.65 -1e-5,-0.35898 0.29103,-0.64997 0.64999,-0.65 0.35899,0 0.65001,0.29102 0.65001,0.65 z m 13.15847,-10e-6 c 0,0.35898 -0.29104,0.64998 -0.65,0.65001 -0.35899,0 -0.65,-0.29103 -0.65001,-0.65 1e-5,-0.35898 0.29104,-0.64997 0.65001,-0.65 0.35898,-1e-5 0.65,0.29102 0.65,0.64999 z m 13.15849,10e-6 c 0,0.35897 -0.29103,0.64997 -0.65,0.65 -0.35899,0 -0.65,-0.29103 -0.65001,-0.65 1e-5,-0.35898 0.29104,-0.64998 0.65001,-0.65 0.35898,-1e-5 0.65,0.29102 0.65,0.65 z m 13.15849,0 c 0,0.35897 -0.29103,0.64997 -0.65,0.65 -0.35898,1e-5 -0.65,-0.29103 -0.65001,-0.65 10e-6,-0.35898 0.29104,-0.64998 0.65001,-0.65 0.35898,0 0.65,0.29102 0.65,0.65 z m 13.15851,0 c 0,0.35898 -0.29104,0.64997 -0.65001,0.65 -0.35897,0 -0.64999,-0.29102 -0.64999,-0.65 0,-0.35898 0.29103,-0.64997 0.64999,-0.65 0.35899,0 0.65001,0.29102 0.65001,0.65 z m 13.1585,0 c 0,0.35898 -0.29104,0.64997 -0.65001,0.65 -0.35897,0 -0.64999,-0.29102 -0.64999,-0.65 0,-0.35898 0.29103,-0.64997 0.65,-0.65001 0.35898,1e-5 0.65,0.29103 0.65,0.65001 z m 13.15849,0 c 0,0.35898 -0.29103,0.64997 -0.64999,0.65 -0.35898,0 -0.65,-0.29102 -0.65,-0.65 0,-0.35898 0.29103,-0.64997 0.65,-0.65 0.35897,0 0.64999,0.29102 0.64999,0.65 z m 13.15848,0 c 0,0.35898 -0.29103,0.64997 -0.64999,0.65 -0.35898,0 -0.65,-0.29102 -0.65,-0.65 0,-0.35898 0.29103,-0.64997 0.65,-0.65001 0.35897,1e-5 0.64999,0.29103 0.64999,0.65001 z m 26.31699,0 c 0,0.35898 -0.29103,0.64997 -0.64999,0.65 -0.35899,0 -0.65001,-0.29102 -0.65001,-0.65 0,-0.35898 0.29104,-0.64997 0.65001,-0.65 0.35897,0 0.64999,0.29102 0.64999,0.65 z m -328.962354,0 c 0,0.35898 -0.291013,0.65 -0.65,0.65 -0.358985,0 -0.65,-0.29102 -0.65,-0.65 0,-0.35898 0.291013,-0.65001 0.65,-0.65 0.358985,0 0.65,0.29102 0.65,0.65 z m 26.31699,0 c 5e-7,0.35898 -0.2910181,0.64999 -0.6499999,0.65 -0.358985,0 -0.65,-0.29102 -0.65,-0.65 0,-0.35898 0.2910132,-0.65001 0.65,-0.65 0.358984,0 0.6499999,0.29102 0.6499999,0.65 z m 26.31699,0 c 0,0.35898 -0.291019,0.65 -0.65,0.65 -0.358982,0 -0.65,-0.29102 -0.65,-0.65 0,-0.35898 0.291019,-0.65 0.65,-0.65 0.358982,0 0.65,0.29102 0.65,0.65 z m 26.316987,-10e-6 c 0,0.35899 -0.291033,0.64997 -0.649998,0.65001 -0.358983,0 -0.650001,-0.29102 -0.650002,-0.65001 0,-0.35898 0.291033,-0.64997 0.650002,-0.64999 0.358984,0 0.650002,0.29102 0.649998,0.64999 z m 26.316995,10e-6 c 10e-7,0.35898 -0.291032,0.64997 -0.649998,0.65 -0.358982,0 -0.65,-0.29102 -0.650001,-0.65 -10e-7,-0.35898 0.291033,-0.64997 0.649997,-0.65001 0.358984,1e-5 0.650002,0.29103 0.650002,0.65001 z m 26.316979,0 c 0,0.35898 -0.291034,0.64997 -0.650003,0.64999 -0.358977,1e-5 -0.649996,-0.29101 -0.649997,-0.64999 -10e-7,-0.35898 0.291033,-0.64997 0.649998,-0.65 0.358982,0 0.650001,0.29102 0.650002,0.65 z m 39.475483,0 c 1e-5,0.35898 -0.29102,0.64996 -0.64999,0.65 -0.35898,0 -0.65,-0.29102 -0.65,-0.65 -1e-5,-0.35898 0.29103,-0.64998 0.65,-0.65 0.35898,0 0.64999,0.29101 0.64999,0.65 z m 26.31699,0 c 1e-5,0.35897 -0.29103,0.64997 -0.64999,0.65 -0.35899,0 -0.65001,-0.29102 -0.65001,-0.65 0,-0.35898 0.29104,-0.64997 0.65001,-0.65 0.35897,0 0.65,0.29102 0.64999,0.65 z m 118.42644,0 c 0,0.35898 -0.29103,0.64997 -0.64999,0.65 -0.35898,0 -0.65,-0.29102 -0.65,-0.65 0,-0.35898 0.29103,-0.64997 0.65,-0.65 0.35897,0 0.64999,0.29102 0.64999,0.65 z M -87.213213,96.617145 c 0,0.30641 -0.29102,0.649999 -0.650002,0.650003 -0.358977,-5e-6 -0.649998,-0.291023 -0.649998,-0.650005 -1e-6,-0.358986 0.29102,-0.649999 0.649998,-0.649994 0.358982,-4e-6 0.650002,0.343585 0.650002,0.649996 z m -2e-6,-9.010977 c 0,0.358982 -0.29102,0.65 -0.649997,0.649995 -0.358982,5e-6 -0.650003,-0.291014 -0.650002,-0.649996 0,-0.358981 0.291019,-0.649999 0.650001,-0.650003 0.358978,5e-6 0.650001,0.291009 0.649998,0.650004 z m 332.031385,6.850961 v -5.02436 c 0,-0.2216 0.1784,-0.4 0.4,-0.4 h 0.49632 c 0.2216,0 0.4,0.1784 0.4,0.4 v 5.02436 c 0,0.221601 -0.1784,0.4 -0.4,0.4 h -0.49632 c -0.2216,0 -0.4,-0.178399 -0.4,-0.4 z m 8.89766,-10.701045 h 9 c 0.22159,-9e-6 0.4,0.178399 0.4,0.4 v 0.49631 c 0,0.221601 -0.1784,0.400001 -0.4,0.400001 h -9 c -0.2216,0 -0.4,-0.1784 -0.4,-0.400001 v -0.49631 c 0,-0.221601 0.1784,-0.4 0.4,-0.4 z m 0,15.414501 h 9 c 0.2216,0 0.4,0.178399 0.4,0.4 v 0.496315 c 0,0.2216 -0.1784,0.4 -0.4,0.4 h -9 c -0.2216,0 -0.4,-0.1784 -0.4,-0.4 v -0.496315 c 0,-0.221601 0.1784,-0.4 0.4,-0.4 z m -327.533745,4.398055 0.785147,-1.5753 c 0.02128,-0.0427 0.05553,-0.0427 0.0768,-4e-5 l 0.785148,1.5753 c 0.02127,0.0427 0.02126,0.11139 -1.7e-5,0.15408 l -0.785147,1.5753 c -0.02128,0.0427 -0.05553,0.0427 -0.0768,4e-5 l -0.785147,-1.5753 c -0.02127,-0.0427 -0.02126,-0.11139 1.8e-5,-0.15408 z" />
    </g>
    <g
       transform="translate(-86.646026,-93.113011)"
       id="g1544">
      <path
         inkscape:connector-curvature="0"
         style="opacity:1;vector-effect:none;fill:none;fill-opacity:1;fill-rule:evenodd;stroke:#ff0000;stroke-width:0.19999999;stroke-linecap:square;stroke-linejoin:miter;stroke-miterlimit:4;stroke-dasharray:none;stroke-dashoffset:0;stroke-opacity:1"
         d="M -80.55726,152.35797 H 288.5552 c 2.69949,0 4.87272,-2.6796 4.87272,-6.00806 v -17.78387 c 0,-3.32847 -2.17323,-6.00807 -4.87272,-6.00807 H -48.331828 c -1.639262,0.0833 -1.402062,1.46869 -2.242862,2.17711 -1.92225,1.61955 -8.75527,1.65957 -10.41276,0 -1.48774,-1.21443 -0.93772,-2.12834 -2.55725,-2.17711 h -17.01256 c -2.69949,0 -4.87272,2.6796 -4.87272,6.00807 v 17.78387 c 0,3.32846 2.17323,6.00806 4.87272,6.00806 z"
         id="path1540" />
      <path
         inkscape:connector-curvature="0"
         id="path1542"
         style="opacity:1;vector-effect:none;fill:none;fill-opacity:1;fill-rule:evenodd;stroke:#000000;stroke-width:0.20000002;stroke-linecap:square;stroke-linejoin:miter;stroke-miterlimit:4;stroke-dasharray:none;stroke-dashoffset:0;stroke-opacity:1"
         d="m 276.09919,125.86446 c 0,-0.35899 -0.29102,-0.65 -0.65,-0.65 -0.35898,0 -0.65,0.29101 -0.65,0.65 0,0.35898 0.29102,0.65 0.65,0.65 0.35898,0 0.65,-0.29102 0.65,-0.65 z m -113.63371,0 c 0,-0.35899 -0.29102,-0.65 -0.65,-0.65 -0.35898,0 -0.65,0.29101 -0.65,0.65 0,0.35898 0.29102,0.65 0.65,0.65 0.35898,0 0.65,-0.29102 0.65,-0.65 z m -25.69633,0 c 0,-0.35899 -0.29101,-0.65 -0.65,-0.65 -0.35898,0 -0.65,0.29101 -0.65,0.65 0,0.35898 0.29102,0.65 0.65,0.65 0.35899,0 0.65,-0.29102 0.65,-0.65 z m -38.544497,0 c 0,-0.35899 -0.291015,-0.65 -0.65,-0.65 -0.358984,0 -0.65,0.29101 -0.65,0.65 0,0.35898 0.291016,0.65 0.65,0.65 0.358985,0 0.65,-0.29102 0.65,-0.65 z m -25.696332,0 c 0,-0.35899 -0.291015,-0.65 -0.65,-0.65 -0.358985,0 -0.65,0.29101 -0.65,0.65 0,0.35898 0.291015,0.65 0.65,0.65 0.358985,0 0.65,-0.29102 0.65,-0.65 z m -25.696348,0 c 0,-0.35899 -0.291015,-0.65 -0.65,-0.65 -0.358985,0 -0.65,0.29101 -0.65,0.65 0,0.35898 0.291015,0.65 0.65,0.65 0.358985,0 0.65,-0.29102 0.65,-0.65 z m -25.696334,0 c 0,-0.35899 -0.291015,-0.65 -0.65,-0.65 -0.358985,0 -0.65,0.29101 -0.65,0.65 0,0.35898 0.291015,0.65 0.65,0.65 0.358985,0 0.65,-0.29102 0.65,-0.65 z m -25.696328,0 c 0,-0.35899 -0.291016,-0.65 -0.65,-0.65 -0.358985,0 -0.65,0.29101 -0.65,0.65 0,0.35898 0.291015,0.65 0.65,0.65 0.358984,0 0.65,-0.29102 0.65,-0.65 z m -25.696338,0 c 0,-0.35899 -0.291015,-0.65 -0.65,-0.65 -0.358984,0 -0.65,0.29101 -0.65,0.65 0,0.35898 0.291016,0.65 0.65,0.65 0.358985,0 0.65,-0.29102 0.65,-0.65 z m 319.204367,0 c 0,-0.35899 -0.29102,-0.65 -0.65,-0.65 -0.35898,0 -0.65,0.29101 -0.65,0.65 0,0.35898 0.29102,0.65 0.65,0.65 0.35898,0 0.65,-0.29102 0.65,-0.65 z m -23.69652,0 c 0,-0.35899 -0.29102,-0.65 -0.65,-0.65 -0.35898,0 -0.65,0.29101 -0.65,0.65 0,0.35898 0.29102,0.65 0.65,0.65 0.35898,0 0.65,-0.29102 0.65,-0.65 z m -12.84815,0 c 0,-0.35899 -0.29102,-0.65 -0.65,-0.65 -0.35898,0 -0.65,0.29101 -0.65,0.65 0,0.35898 0.29102,0.65 0.65,0.65 0.35898,0 0.65,-0.29102 0.65,-0.65 z m -12.84818,0 c 0,-0.35899 -0.29102,-0.65 -0.65,-0.65 -0.35898,0 -0.65,0.29101 -0.65,0.65 0,0.35898 0.29102,0.65 0.65,0.65 0.35898,0 0.65,-0.29102 0.65,-0.65 z m -12.84815,0 c 0,-0.35899 -0.29102,-0.65 -0.65,-0.65 -0.35898,0 -0.65,0.29101 -0.65,0.65 0,0.35898 0.29102,0.65 0.65,0.65 0.35898,0 0.65,-0.29102 0.65,-0.65 z m -12.84819,0 c 0,-0.35899 -0.29102,-0.65 -0.65,-0.65 -0.35898,0 -0.65,0.29101 -0.65,0.65 0,0.35898 0.29102,0.65 0.65,0.65 0.35898,0 0.65,-0.29102 0.65,-0.65 z m -12.84818,0 c 0,-0.35899 -0.29102,-0.65 -0.65,-0.65 -0.35898,0 -0.65,0.29101 -0.65,0.65 0,0.35898 0.29102,0.65 0.65,0.65 0.35898,0 0.65,-0.29102 0.65,-0.65 z m -12.84814,0 c 0,-0.35899 -0.29102,-0.65 -0.65,-0.65 -0.35898,0 -0.65,0.29101 -0.65,0.65 0,0.35898 0.29102,0.65 0.65,0.65 0.35898,0 0.65,-0.29102 0.65,-0.65 z m -12.84818,0 c 0,-0.35899 -0.29102,-0.65 -0.65,-0.65 -0.35898,0 -0.65,0.29101 -0.65,0.65 0,0.35898 0.29102,0.65 0.65,0.65 0.35898,0 0.65,-0.29102 0.65,-0.65 z m -25.69633,0 c 0,-0.35899 -0.29102,-0.65 -0.65,-0.65 -0.35899,0 -0.65,0.29101 -0.65,0.65 0,0.35898 0.29101,0.65 0.65,0.65 0.35898,0 0.65,-0.29102 0.65,-0.65 z m -229.26673,0 c 0,-0.35899 -0.29102,-0.65 -0.65,-0.65 -0.35898,0 -0.65,0.29101 -0.65,0.65 0,0.35898 0.29102,0.65 0.65,0.65 0.35898,0 0.65,-0.29102 0.65,-0.65 z m 203.5704,0 c 0,-0.35899 -0.29102,-0.65 -0.65,-0.65 -0.35899,0 -0.65,0.29101 -0.65,0.65 0,0.35898 0.29101,0.65 0.65,0.65 0.35898,0 0.65,-0.29102 0.65,-0.65 z m -12.84817,0 c 0,-0.35899 -0.29101,-0.65 -0.65,-0.65 -0.35898,0 -0.65,0.29101 -0.65,0.65 0,0.35898 0.29102,0.65 0.65,0.65 0.35899,0 0.65,-0.29102 0.65,-0.65 z m -25.696334,0 c 0,-0.35899 -0.291015,-0.65 -0.65,-0.65 -0.358985,0 -0.65,0.29101 -0.65,0.65 0,0.35898 0.291015,0.65 0.65,0.65 0.358985,0 0.65,-0.29102 0.65,-0.65 z m -25.696348,0 c 0,-0.35899 -0.291015,-0.65 -0.65,-0.65 -0.358985,0 -0.65,0.29101 -0.65,0.65 0,0.35898 0.291015,0.65 0.65,0.65 0.358985,0 0.65,-0.29102 0.65,-0.65 z m -25.696333,0 c 0,-0.35899 -0.291015,-0.65 -0.65,-0.65 -0.358985,0 -0.65,0.29101 -0.65,0.65 0,0.35898 0.291015,0.65 0.65,0.65 0.358985,0 0.65,-0.29102 0.65,-0.65 z m -25.696328,0 c 0,-0.35899 -0.291015,-0.65 -0.65,-0.65 -0.358984,0 -0.65,0.29101 -0.65,0.65 0,0.35898 0.291016,0.65 0.65,0.65 0.358985,0 0.65,-0.29102 0.65,-0.65 z m -25.696345,0 c 0,-0.35899 -0.291016,-0.65 -0.65,-0.65 -0.358985,0 -0.65,0.29101 -0.65,0.65 0,0.35898 0.291015,0.65 0.65,0.65 0.358984,0 0.65,-0.29102 0.65,-0.65 z m -23.69604,0 c 0,-0.35899 -0.291015,-0.65 -0.65,-0.65 -0.358984,0 -0.65,0.29101 -0.65,0.65 0,0.35898 0.291016,0.65 0.65,0.65 0.358985,0 0.65,-0.29102 0.65,-0.65 z m -25.696332,0 c 0,-0.35899 -0.29102,-0.65 -0.65,-0.65 -0.35898,0 -0.65,0.29101 -0.65,0.65 0,0.35898 0.29102,0.65 0.65,0.65 0.35898,0 0.65,-0.29102 0.65,-0.65 z m 342.90043,23.18702 c 0,-0.35899 -0.29102,-0.65 -0.65,-0.65 -0.35898,0 -0.65,0.29101 -0.65,0.65 0,0.35898 0.29102,0.65 0.65,0.65 0.35898,0 0.65,-0.29102 0.65,-0.65 z m -113.63371,0 c 0,-0.35899 -0.29102,-0.65 -0.65,-0.65 -0.35898,0 -0.65,0.29101 -0.65,0.65 0,0.35898 0.29102,0.65 0.65,0.65 0.35898,0 0.65,-0.29102 0.65,-0.65 z m -25.69633,0 c 0,-0.35899 -0.29101,-0.65 -0.65,-0.65 -0.35898,0 -0.65,0.29101 -0.65,0.65 0,0.35898 0.29102,0.65 0.65,0.65 0.35899,0 0.65,-0.29102 0.65,-0.65 z m -38.544497,0 c 0,-0.35899 -0.291015,-0.65 -0.65,-0.65 -0.358984,0 -0.65,0.29101 -0.65,0.65 0,0.35898 0.291016,0.65 0.65,0.65 0.358985,0 0.65,-0.29102 0.65,-0.65 z m -25.696332,0 c 0,-0.35899 -0.291015,-0.65 -0.65,-0.65 -0.358985,0 -0.65,0.29101 -0.65,0.65 0,0.35898 0.291015,0.65 0.65,0.65 0.358985,0 0.65,-0.29102 0.65,-0.65 z m -25.696348,0 c 0,-0.35899 -0.291015,-0.65 -0.65,-0.65 -0.358985,0 -0.65,0.29101 -0.65,0.65 0,0.35898 0.291015,0.65 0.65,0.65 0.358985,0 0.65,-0.29102 0.65,-0.65 z m -25.696334,0 c 0,-0.35899 -0.291015,-0.65 -0.65,-0.65 -0.358985,0 -0.65,0.29101 -0.65,0.65 0,0.35898 0.291015,0.65 0.65,0.65 0.358985,0 0.65,-0.29102 0.65,-0.65 z m -25.696328,0 c 0,-0.35899 -0.291016,-0.65 -0.65,-0.65 -0.358985,0 -0.65,0.29101 -0.65,0.65 0,0.35898 0.291015,0.65 0.65,0.65 0.358984,0 0.65,-0.29102 0.65,-0.65 z m -25.696338,0 c 0,-0.35899 -0.291015,-0.65 -0.65,-0.65 -0.358984,0 -0.65,0.29101 -0.65,0.65 0,0.35898 0.291016,0.65 0.65,0.65 0.358985,0 0.65,-0.29102 0.65,-0.65 z m 319.204367,0 c 0,-0.35899 -0.29102,-0.65 -0.65,-0.65 -0.35898,0 -0.65,0.29101 -0.65,0.65 0,0.35898 0.29102,0.65 0.65,0.65 0.35898,0 0.65,-0.29102 0.65,-0.65 z m -23.69652,0 c 0,-0.35899 -0.29102,-0.65 -0.65,-0.65 -0.35898,0 -0.65,0.29101 -0.65,0.65 0,0.35898 0.29102,0.65 0.65,0.65 0.35898,0 0.65,-0.29102 0.65,-0.65 z m -12.84815,0 c 0,-0.35899 -0.29102,-0.65 -0.65,-0.65 -0.35898,0 -0.65,0.29101 -0.65,0.65 0,0.35898 0.29102,0.65 0.65,0.65 0.35898,0 0.65,-0.29102 0.65,-0.65 z m -12.84818,0 c 0,-0.35899 -0.29102,-0.65 -0.65,-0.65 -0.35898,0 -0.65,0.29101 -0.65,0.65 0,0.35898 0.29102,0.65 0.65,0.65 0.35898,0 0.65,-0.29102 0.65,-0.65 z m -12.84815,0 c 0,-0.35899 -0.29102,-0.65 -0.65,-0.65 -0.35898,0 -0.65,0.29101 -0.65,0.65 0,0.35898 0.29102,0.65 0.65,0.65 0.35898,0 0.65,-0.29102 0.65,-0.65 z m -12.84819,0 c 0,-0.35899 -0.29102,-0.65 -0.65,-0.65 -0.35898,0 -0.65,0.29101 -0.65,0.65 0,0.35898 0.29102,0.65 0.65,0.65 0.35898,0 0.65,-0.29102 0.65,-0.65 z m -12.84818,0 c 0,-0.35899 -0.29102,-0.65 -0.65,-0.65 -0.35898,0 -0.65,0.29101 -0.65,0.65 0,0.35898 0.29102,0.65 0.65,0.65 0.35898,0 0.65,-0.29102 0.65,-0.65 z m -12.84814,0 c 0,-0.35899 -0.29102,-0.65 -0.65,-0.65 -0.35898,0 -0.65,0.29101 -0.65,0.65 0,0.35898 0.29102,0.65 0.65,0.65 0.35898,0 0.65,-0.29102 0.65,-0.65 z m -12.84818,0 c 0,-0.35899 -0.29102,-0.65 -0.65,-0.65 -0.35898,0 -0.65,0.29101 -0.65,0.65 0,0.35898 0.29102,0.65 0.65,0.65 0.35898,0 0.65,-0.29102 0.65,-0.65 z m -25.69633,0 c 0,-0.35899 -0.29102,-0.65 -0.65,-0.65 -0.35899,0 -0.65,0.29101 -0.65,0.65 0,0.35898 0.29101,0.65 0.65,0.65 0.35898,0 0.65,-0.29102 0.65,-0.65 z m -229.26673,0 c 0,-0.35899 -0.29102,-0.65 -0.65,-0.65 -0.35898,0 -0.65,0.29101 -0.65,0.65 0,0.35898 0.29102,0.65 0.65,0.65 0.35898,0 0.65,-0.29102 0.65,-0.65 z m 203.5704,0 c 0,-0.35899 -0.29102,-0.65 -0.65,-0.65 -0.35899,0 -0.65,0.29101 -0.65,0.65 0,0.35898 0.29101,0.65 0.65,0.65 0.35898,0 0.65,-0.29102 0.65,-0.65 z m -12.84817,0 c 0,-0.35899 -0.29101,-0.65 -0.65,-0.65 -0.35898,0 -0.65,0.29101 -0.65,0.65 0,0.35898 0.29102,0.65 0.65,0.65 0.35899,0 0.65,-0.29102 0.65,-0.65 z m -25.696334,0 c 0,-0.35899 -0.291015,-0.65 -0.65,-0.65 -0.358985,0 -0.65,0.29101 -0.65,0.65 0,0.35898 0.291015,0.65 0.65,0.65 0.358985,0 0.65,-0.29102 0.65,-0.65 z m -25.696348,0 c 0,-0.35899 -0.291015,-0.65 -0.65,-0.65 -0.358985,0 -0.65,0.29101 -0.65,0.65 0,0.35898 0.291015,0.65 0.65,0.65 0.358985,0 0.65,-0.29102 0.65,-0.65 z m -25.696333,0 c 0,-0.35899 -0.291015,-0.65 -0.65,-0.65 -0.358985,0 -0.65,0.29101 -0.65,0.65 0,0.35898 0.291015,0.65 0.65,0.65 0.358985,0 0.65,-0.29102 0.65,-0.65 z m -25.696328,0 c 0,-0.35899 -0.291015,-0.65 -0.65,-0.65 -0.358984,0 -0.65,0.29101 -0.65,0.65 0,0.35898 0.291016,0.65 0.65,0.65 0.358985,0 0.65,-0.29102 0.65,-0.65 z m -25.696345,0 c 0,-0.35899 -0.291016,-0.65 -0.65,-0.65 -0.358985,0 -0.65,0.29101 -0.65,0.65 0,0.35898 0.291015,0.65 0.65,0.65 0.358984,0 0.65,-0.29102 0.65,-0.65 z m -23.69604,0 c 0,-0.35899 -0.291015,-0.65 -0.65,-0.65 -0.358984,0 -0.65,0.29101 -0.65,0.65 0,0.35898 0.291016,0.65 0.65,0.65 0.358985,0 0.65,-0.29102 0.65,-0.65 z m -12.848182,0 c 0,-0.35899 -0.29102,-0.65 -0.65,-0.65 -0.35898,0 -0.65,0.29101 -0.65,0.65 0,0.35898 0.29102,0.65 0.65,0.65 0.35898,0 0.65,-0.29102 0.65,-0.65 z m -27.15884,-7.08802 c 0,-0.35898 -0.29102,-0.65 -0.65,-0.65 -0.35898,0 -0.65,0.29102 -0.65,0.65 0,0.35898 0.29102,0.65 0.65,0.65 0.35898,0 0.65,-0.29102 0.65,-0.65 z m 0,-9.01099 c 0,-0.35898 -0.29102,-0.65 -0.65,-0.65 -0.35898,0 -0.65,0.29102 -0.65,0.65 0,0.35898 0.29102,0.65 0.65,0.65 0.35898,0 0.65,-0.29102 0.65,-0.65 z m 370.2218,0 c 0,-0.35899 0.29102,-0.65 0.65,-0.65 0.35898,0 0.65,0.29101 0.65,0.65 0,0.35898 -0.29102,0.65 -0.65,0.65 -0.35898,0 -0.65,-0.29102 -0.65,-0.65 z m 0,9.01098 c 0,-0.35898 0.29102,-0.65 0.65,-0.65 0.35898,0 0.65,0.29102 0.65,0.65 0,0.35898 -0.29102,0.65 -0.65,0.65 -0.35898,0 -0.65,-0.29102 -0.65,-0.65 z m -59.28272,0.99493 c 0.277,0 0.5,-0.223 0.5,-0.5 v -10 c 0,-0.27699 -0.223,-0.5 -0.5,-0.5 -0.277,0 -0.5,0.22301 -0.5,0.5 v 10 c 0,0.277 0.223,0.5 0.5,0.5 z m -251.656844,0 c 0.27699,0 0.5,-0.223 0.5,-0.5 v -10 c 0,-0.27699 -0.22301,-0.5 -0.5,-0.5 -0.27701,0 -0.5,0.22301 -0.5,0.5 v 10 c 0,0.277 0.22299,0.5 0.5,0.5 z m -46.462752,5.47996 0.785147,-1.5753 c 0.02128,-0.0427 0.05553,-0.0427 0.0768,-3e-5 l 0.785148,1.5753 c 0.02127,0.0427 0.02126,0.11139 -1.8e-5,0.15408 l -0.785147,1.5753 c -0.02128,0.0427 -0.05553,0.0427 -0.0768,4e-5 l -0.785147,-1.5753 c -0.02127,-0.0427 -0.02126,-0.11139 1.8e-5,-0.15409 z" />
    </g>
  </g>
</svg>
